<?xml version="1.0" encoding="utf-8" standalone="no"?>
<!DOCTYPE svg PUBLIC "-//W3C//DTD SVG 1.1//EN"
  "http://www.w3.org/Graphics/SVG/1.1/DTD/svg11.dtd">
<svg xmlns:xlink="http://www.w3.org/1999/xlink" width="792pt" height="403.2pt" viewBox="0 0 792 403.2" xmlns="http://www.w3.org/2000/svg" version="1.1">
 <title>全国城镇调查失业率</title>
 <metadata>
  <rdf:RDF xmlns:dc="http://purl.org/dc/elements/1.1/" xmlns:cc="http://creativecommons.org/ns#" xmlns:rdf="http://www.w3.org/1999/02/22-rdf-syntax-ns#">
   <cc:Work>
    <dc:type rdf:resource="http://purl.org/dc/dcmitype/StillImage"/>
    <dc:title>全国城镇调查失业率</dc:title>
    <dc:format>image/svg+xml</dc:format>
    <dc:creator>
     <cc:Agent>
      <dc:title>Matplotlib v3.10.7, https://matplotlib.org/</dc:title>
     </cc:Agent>
    </dc:creator>
   </cc:Work>
  </rdf:RDF>
 </metadata>
 <defs>
  <style type="text/css">*{stroke-linejoin: round; stroke-linecap: butt}</style>
 </defs>
 <g id="figure_1">
  <g id="patch_1">
   <path d="M 0 403.2
L 792 403.2
L 792 0
L 0 0
z
" style="fill: #ffffff"/>
  </g>
  <g id="axes_1">
   <g id="patch_2">
    <path d="M 79.2 314.496
L 760.32 314.496
L 760.32 88.704
L 79.2 88.704
z
" style="fill: #ffffff"/>
   </g>
   <g id="matplotlib.axis_1">
    <g id="xtick_1">
     <g id="line2d_1">
      <defs>
       <path id="mb1d23b2be4" d="M 0 0
L 0 3.5
" style="stroke: #000000; stroke-width: 0.8"/>
      </defs>
      <g>
       <use xlink:href="#mb1d23b2be4" x="110.16" y="314.496" style="stroke: #000000; stroke-width: 0.8"/>
      </g>
     </g>
     <g id="text_1">
      <!-- 2018-01 -->
      <g transform="translate(87.179453 329.854281) scale(0.11 -0.11)">
       <defs>
        <path id="DejaVuSans-32" d="M 1228 531
L 3431 531
L 3431 0
L 469 0
L 469 531
Q 828 903 1448 1529
Q 2069 2156 2228 2338
Q 2531 2678 2651 2914
Q 2772 3150 2772 3378
Q 2772 3750 2511 3984
Q 2250 4219 1831 4219
Q 1534 4219 1204 4116
Q 875 4013 500 3803
L 500 4441
Q 881 4594 1212 4672
Q 1544 4750 1819 4750
Q 2544 4750 2975 4387
Q 3406 4025 3406 3419
Q 3406 3131 3298 2873
Q 3191 2616 2906 2266
Q 2828 2175 2409 1742
Q 1991 1309 1228 531
z
" transform="scale(0.015625)"/>
        <path id="DejaVuSans-30" d="M 2034 4250
Q 1547 4250 1301 3770
Q 1056 3291 1056 2328
Q 1056 1369 1301 889
Q 1547 409 2034 409
Q 2525 409 2770 889
Q 3016 1369 3016 2328
Q 3016 3291 2770 3770
Q 2525 4250 2034 4250
z
M 2034 4750
Q 2819 4750 3233 4129
Q 3647 3509 3647 2328
Q 3647 1150 3233 529
Q 2819 -91 2034 -91
Q 1250 -91 836 529
Q 422 1150 422 2328
Q 422 3509 836 4129
Q 1250 4750 2034 4750
z
" transform="scale(0.015625)"/>
        <path id="DejaVuSans-31" d="M 794 531
L 1825 531
L 1825 4091
L 703 3866
L 703 4441
L 1819 4666
L 2450 4666
L 2450 531
L 3481 531
L 3481 0
L 794 0
L 794 531
z
" transform="scale(0.015625)"/>
        <path id="DejaVuSans-38" d="M 2034 2216
Q 1584 2216 1326 1975
Q 1069 1734 1069 1313
Q 1069 891 1326 650
Q 1584 409 2034 409
Q 2484 409 2743 651
Q 3003 894 3003 1313
Q 3003 1734 2745 1975
Q 2488 2216 2034 2216
z
M 1403 2484
Q 997 2584 770 2862
Q 544 3141 544 3541
Q 544 4100 942 4425
Q 1341 4750 2034 4750
Q 2731 4750 3128 4425
Q 3525 4100 3525 3541
Q 3525 3141 3298 2862
Q 3072 2584 2669 2484
Q 3125 2378 3379 2068
Q 3634 1759 3634 1313
Q 3634 634 3220 271
Q 2806 -91 2034 -91
Q 1263 -91 848 271
Q 434 634 434 1313
Q 434 1759 690 2068
Q 947 2378 1403 2484
z
M 1172 3481
Q 1172 3119 1398 2916
Q 1625 2713 2034 2713
Q 2441 2713 2670 2916
Q 2900 3119 2900 3481
Q 2900 3844 2670 4047
Q 2441 4250 2034 4250
Q 1625 4250 1398 4047
Q 1172 3844 1172 3481
z
" transform="scale(0.015625)"/>
        <path id="DejaVuSans-2d" d="M 313 2009
L 1997 2009
L 1997 1497
L 313 1497
L 313 2009
z
" transform="scale(0.015625)"/>
       </defs>
       <use xlink:href="#DejaVuSans-32"/>
       <use xlink:href="#DejaVuSans-30" transform="translate(63.623047 0)"/>
       <use xlink:href="#DejaVuSans-31" transform="translate(127.246094 0)"/>
       <use xlink:href="#DejaVuSans-38" transform="translate(190.869141 0)"/>
       <use xlink:href="#DejaVuSans-2d" transform="translate(254.492188 0)"/>
       <use xlink:href="#DejaVuSans-30" transform="translate(290.576172 0)"/>
       <use xlink:href="#DejaVuSans-31" transform="translate(354.199219 0)"/>
      </g>
     </g>
    </g>
    <g id="xtick_2">
     <g id="line2d_2">
      <g>
       <use xlink:href="#mb1d23b2be4" x="236.40466" y="314.496" style="stroke: #000000; stroke-width: 0.8"/>
      </g>
     </g>
     <g id="text_2">
      <!-- 2019-10 -->
      <g transform="translate(213.424113 329.854281) scale(0.11 -0.11)">
       <defs>
        <path id="DejaVuSans-39" d="M 703 97
L 703 672
Q 941 559 1184 500
Q 1428 441 1663 441
Q 2288 441 2617 861
Q 2947 1281 2994 2138
Q 2813 1869 2534 1725
Q 2256 1581 1919 1581
Q 1219 1581 811 2004
Q 403 2428 403 3163
Q 403 3881 828 4315
Q 1253 4750 1959 4750
Q 2769 4750 3195 4129
Q 3622 3509 3622 2328
Q 3622 1225 3098 567
Q 2575 -91 1691 -91
Q 1453 -91 1209 -44
Q 966 3 703 97
z
M 1959 2075
Q 2384 2075 2632 2365
Q 2881 2656 2881 3163
Q 2881 3666 2632 3958
Q 2384 4250 1959 4250
Q 1534 4250 1286 3958
Q 1038 3666 1038 3163
Q 1038 2656 1286 2365
Q 1534 2075 1959 2075
z
" transform="scale(0.015625)"/>
       </defs>
       <use xlink:href="#DejaVuSans-32"/>
       <use xlink:href="#DejaVuSans-30" transform="translate(63.623047 0)"/>
       <use xlink:href="#DejaVuSans-31" transform="translate(127.246094 0)"/>
       <use xlink:href="#DejaVuSans-39" transform="translate(190.869141 0)"/>
       <use xlink:href="#DejaVuSans-2d" transform="translate(254.492188 0)"/>
       <use xlink:href="#DejaVuSans-31" transform="translate(290.576172 0)"/>
       <use xlink:href="#DejaVuSans-30" transform="translate(354.199219 0)"/>
      </g>
     </g>
    </g>
    <g id="xtick_3">
     <g id="line2d_3">
      <g>
       <use xlink:href="#mb1d23b2be4" x="356.63767" y="314.496" style="stroke: #000000; stroke-width: 0.8"/>
      </g>
     </g>
     <g id="text_3">
      <!-- 2021-06 -->
      <g transform="translate(333.657123 329.854281) scale(0.11 -0.11)">
       <defs>
        <path id="DejaVuSans-36" d="M 2113 2584
Q 1688 2584 1439 2293
Q 1191 2003 1191 1497
Q 1191 994 1439 701
Q 1688 409 2113 409
Q 2538 409 2786 701
Q 3034 994 3034 1497
Q 3034 2003 2786 2293
Q 2538 2584 2113 2584
z
M 3366 4563
L 3366 3988
Q 3128 4100 2886 4159
Q 2644 4219 2406 4219
Q 1781 4219 1451 3797
Q 1122 3375 1075 2522
Q 1259 2794 1537 2939
Q 1816 3084 2150 3084
Q 2853 3084 3261 2657
Q 3669 2231 3669 1497
Q 3669 778 3244 343
Q 2819 -91 2113 -91
Q 1303 -91 875 529
Q 447 1150 447 2328
Q 447 3434 972 4092
Q 1497 4750 2381 4750
Q 2619 4750 2861 4703
Q 3103 4656 3366 4563
z
" transform="scale(0.015625)"/>
       </defs>
       <use xlink:href="#DejaVuSans-32"/>
       <use xlink:href="#DejaVuSans-30" transform="translate(63.623047 0)"/>
       <use xlink:href="#DejaVuSans-32" transform="translate(127.246094 0)"/>
       <use xlink:href="#DejaVuSans-31" transform="translate(190.869141 0)"/>
       <use xlink:href="#DejaVuSans-2d" transform="translate(254.492188 0)"/>
       <use xlink:href="#DejaVuSans-30" transform="translate(290.576172 0)"/>
       <use xlink:href="#DejaVuSans-36" transform="translate(354.199219 0)"/>
      </g>
     </g>
    </g>
    <g id="xtick_4">
     <g id="line2d_4">
      <g>
       <use xlink:href="#mb1d23b2be4" x="482.88233" y="314.496" style="stroke: #000000; stroke-width: 0.8"/>
      </g>
     </g>
     <g id="text_4">
      <!-- 2023-03 -->
      <g transform="translate(459.901783 329.854281) scale(0.11 -0.11)">
       <defs>
        <path id="DejaVuSans-33" d="M 2597 2516
Q 3050 2419 3304 2112
Q 3559 1806 3559 1356
Q 3559 666 3084 287
Q 2609 -91 1734 -91
Q 1441 -91 1130 -33
Q 819 25 488 141
L 488 750
Q 750 597 1062 519
Q 1375 441 1716 441
Q 2309 441 2620 675
Q 2931 909 2931 1356
Q 2931 1769 2642 2001
Q 2353 2234 1838 2234
L 1294 2234
L 1294 2753
L 1863 2753
Q 2328 2753 2575 2939
Q 2822 3125 2822 3475
Q 2822 3834 2567 4026
Q 2313 4219 1838 4219
Q 1578 4219 1281 4162
Q 984 4106 628 3988
L 628 4550
Q 988 4650 1302 4700
Q 1616 4750 1894 4750
Q 2613 4750 3031 4423
Q 3450 4097 3450 3541
Q 3450 3153 3228 2886
Q 3006 2619 2597 2516
z
" transform="scale(0.015625)"/>
       </defs>
       <use xlink:href="#DejaVuSans-32"/>
       <use xlink:href="#DejaVuSans-30" transform="translate(63.623047 0)"/>
       <use xlink:href="#DejaVuSans-32" transform="translate(127.246094 0)"/>
       <use xlink:href="#DejaVuSans-33" transform="translate(190.869141 0)"/>
       <use xlink:href="#DejaVuSans-2d" transform="translate(254.492188 0)"/>
       <use xlink:href="#DejaVuSans-30" transform="translate(290.576172 0)"/>
       <use xlink:href="#DejaVuSans-33" transform="translate(354.199219 0)"/>
      </g>
     </g>
    </g>
    <g id="xtick_5">
     <g id="line2d_5">
      <g>
       <use xlink:href="#mb1d23b2be4" x="603.11534" y="314.496" style="stroke: #000000; stroke-width: 0.8"/>
      </g>
     </g>
     <g id="text_5">
      <!-- 2024-11 -->
      <g transform="translate(580.134793 329.854281) scale(0.11 -0.11)">
       <defs>
        <path id="DejaVuSans-34" d="M 2419 4116
L 825 1625
L 2419 1625
L 2419 4116
z
M 2253 4666
L 3047 4666
L 3047 1625
L 3713 1625
L 3713 1100
L 3047 1100
L 3047 0
L 2419 0
L 2419 1100
L 313 1100
L 313 1709
L 2253 4666
z
" transform="scale(0.015625)"/>
       </defs>
       <use xlink:href="#DejaVuSans-32"/>
       <use xlink:href="#DejaVuSans-30" transform="translate(63.623047 0)"/>
       <use xlink:href="#DejaVuSans-32" transform="translate(127.246094 0)"/>
       <use xlink:href="#DejaVuSans-34" transform="translate(190.869141 0)"/>
       <use xlink:href="#DejaVuSans-2d" transform="translate(254.492188 0)"/>
       <use xlink:href="#DejaVuSans-31" transform="translate(290.576172 0)"/>
       <use xlink:href="#DejaVuSans-31" transform="translate(354.199219 0)"/>
      </g>
     </g>
    </g>
    <g id="xtick_6">
     <g id="line2d_6">
      <g>
       <use xlink:href="#mb1d23b2be4" x="729.36" y="314.496" style="stroke: #000000; stroke-width: 0.8"/>
      </g>
     </g>
     <g id="text_6">
      <!-- 2026-08 -->
      <g transform="translate(706.379453 329.854281) scale(0.11 -0.11)">
       <use xlink:href="#DejaVuSans-32"/>
       <use xlink:href="#DejaVuSans-30" transform="translate(63.623047 0)"/>
       <use xlink:href="#DejaVuSans-32" transform="translate(127.246094 0)"/>
       <use xlink:href="#DejaVuSans-36" transform="translate(190.869141 0)"/>
       <use xlink:href="#DejaVuSans-2d" transform="translate(254.492188 0)"/>
       <use xlink:href="#DejaVuSans-30" transform="translate(290.576172 0)"/>
       <use xlink:href="#DejaVuSans-38" transform="translate(354.199219 0)"/>
      </g>
     </g>
    </g>
   </g>
   <g id="matplotlib.axis_2">
    <g id="ytick_1">
     <g id="line2d_7">
      <path d="M 79.2 304.232727
L 760.32 304.232727
" clip-path="url(#p95fe033cf8)" style="fill: none; stroke: #e5eaf0; stroke-width: 0.8; stroke-linecap: square"/>
     </g>
     <g id="line2d_8">
      <defs>
       <path id="m30daab40ef" d="M 0 0
L -3.5 0
" style="stroke: #000000; stroke-width: 0.8"/>
      </defs>
      <g>
       <use xlink:href="#m30daab40ef" x="79.2" y="304.232727" style="stroke: #000000; stroke-width: 0.8"/>
      </g>
     </g>
     <g id="text_7">
      <!-- 4.8 -->
      <g transform="translate(53.11625 308.79179) scale(0.12 -0.12)">
       <defs>
        <path id="DejaVuSans-2e" d="M 684 794
L 1344 794
L 1344 0
L 684 0
L 684 794
z
" transform="scale(0.015625)"/>
       </defs>
       <use xlink:href="#DejaVuSans-34"/>
       <use xlink:href="#DejaVuSans-2e" transform="translate(63.623047 0)"/>
       <use xlink:href="#DejaVuSans-38" transform="translate(95.410156 0)"/>
      </g>
     </g>
    </g>
    <g id="ytick_2">
     <g id="line2d_9">
      <path d="M 79.2 274.909091
L 760.32 274.909091
" clip-path="url(#p95fe033cf8)" style="fill: none; stroke: #e5eaf0; stroke-width: 0.8; stroke-linecap: square"/>
     </g>
     <g id="line2d_10">
      <g>
       <use xlink:href="#m30daab40ef" x="79.2" y="274.909091" style="stroke: #000000; stroke-width: 0.8"/>
      </g>
     </g>
     <g id="text_8">
      <!-- 5.0 -->
      <g transform="translate(53.11625 279.468153) scale(0.12 -0.12)">
       <defs>
        <path id="DejaVuSans-35" d="M 691 4666
L 3169 4666
L 3169 4134
L 1269 4134
L 1269 2991
Q 1406 3038 1543 3061
Q 1681 3084 1819 3084
Q 2600 3084 3056 2656
Q 3513 2228 3513 1497
Q 3513 744 3044 326
Q 2575 -91 1722 -91
Q 1428 -91 1123 -41
Q 819 9 494 109
L 494 744
Q 775 591 1075 516
Q 1375 441 1709 441
Q 2250 441 2565 725
Q 2881 1009 2881 1497
Q 2881 1984 2565 2268
Q 2250 2553 1709 2553
Q 1456 2553 1204 2497
Q 953 2441 691 2322
L 691 4666
z
" transform="scale(0.015625)"/>
       </defs>
       <use xlink:href="#DejaVuSans-35"/>
       <use xlink:href="#DejaVuSans-2e" transform="translate(63.623047 0)"/>
       <use xlink:href="#DejaVuSans-30" transform="translate(95.410156 0)"/>
      </g>
     </g>
    </g>
    <g id="ytick_3">
     <g id="line2d_11">
      <path d="M 79.2 245.585455
L 760.32 245.585455
" clip-path="url(#p95fe033cf8)" style="fill: none; stroke: #e5eaf0; stroke-width: 0.8; stroke-linecap: square"/>
     </g>
     <g id="line2d_12">
      <g>
       <use xlink:href="#m30daab40ef" x="79.2" y="245.585455" style="stroke: #000000; stroke-width: 0.8"/>
      </g>
     </g>
     <g id="text_9">
      <!-- 5.2 -->
      <g transform="translate(53.11625 250.144517) scale(0.12 -0.12)">
       <use xlink:href="#DejaVuSans-35"/>
       <use xlink:href="#DejaVuSans-2e" transform="translate(63.623047 0)"/>
       <use xlink:href="#DejaVuSans-32" transform="translate(95.410156 0)"/>
      </g>
     </g>
    </g>
    <g id="ytick_4">
     <g id="line2d_13">
      <path d="M 79.2 216.261818
L 760.32 216.261818
" clip-path="url(#p95fe033cf8)" style="fill: none; stroke: #e5eaf0; stroke-width: 0.8; stroke-linecap: square"/>
     </g>
     <g id="line2d_14">
      <g>
       <use xlink:href="#m30daab40ef" x="79.2" y="216.261818" style="stroke: #000000; stroke-width: 0.8"/>
      </g>
     </g>
     <g id="text_10">
      <!-- 5.4 -->
      <g transform="translate(53.11625 220.820881) scale(0.12 -0.12)">
       <use xlink:href="#DejaVuSans-35"/>
       <use xlink:href="#DejaVuSans-2e" transform="translate(63.623047 0)"/>
       <use xlink:href="#DejaVuSans-34" transform="translate(95.410156 0)"/>
      </g>
     </g>
    </g>
    <g id="ytick_5">
     <g id="line2d_15">
      <path d="M 79.2 186.938182
L 760.32 186.938182
" clip-path="url(#p95fe033cf8)" style="fill: none; stroke: #e5eaf0; stroke-width: 0.8; stroke-linecap: square"/>
     </g>
     <g id="line2d_16">
      <g>
       <use xlink:href="#m30daab40ef" x="79.2" y="186.938182" style="stroke: #000000; stroke-width: 0.8"/>
      </g>
     </g>
     <g id="text_11">
      <!-- 5.6 -->
      <g transform="translate(53.11625 191.497244) scale(0.12 -0.12)">
       <use xlink:href="#DejaVuSans-35"/>
       <use xlink:href="#DejaVuSans-2e" transform="translate(63.623047 0)"/>
       <use xlink:href="#DejaVuSans-36" transform="translate(95.410156 0)"/>
      </g>
     </g>
    </g>
    <g id="ytick_6">
     <g id="line2d_17">
      <path d="M 79.2 157.614545
L 760.32 157.614545
" clip-path="url(#p95fe033cf8)" style="fill: none; stroke: #e5eaf0; stroke-width: 0.8; stroke-linecap: square"/>
     </g>
     <g id="line2d_18">
      <g>
       <use xlink:href="#m30daab40ef" x="79.2" y="157.614545" style="stroke: #000000; stroke-width: 0.8"/>
      </g>
     </g>
     <g id="text_12">
      <!-- 5.8 -->
      <g transform="translate(53.11625 162.173608) scale(0.12 -0.12)">
       <use xlink:href="#DejaVuSans-35"/>
       <use xlink:href="#DejaVuSans-2e" transform="translate(63.623047 0)"/>
       <use xlink:href="#DejaVuSans-38" transform="translate(95.410156 0)"/>
      </g>
     </g>
    </g>
    <g id="ytick_7">
     <g id="line2d_19">
      <path d="M 79.2 128.290909
L 760.32 128.290909
" clip-path="url(#p95fe033cf8)" style="fill: none; stroke: #e5eaf0; stroke-width: 0.8; stroke-linecap: square"/>
     </g>
     <g id="line2d_20">
      <g>
       <use xlink:href="#m30daab40ef" x="79.2" y="128.290909" style="stroke: #000000; stroke-width: 0.8"/>
      </g>
     </g>
     <g id="text_13">
      <!-- 6.0 -->
      <g transform="translate(53.11625 132.849972) scale(0.12 -0.12)">
       <use xlink:href="#DejaVuSans-36"/>
       <use xlink:href="#DejaVuSans-2e" transform="translate(63.623047 0)"/>
       <use xlink:href="#DejaVuSans-30" transform="translate(95.410156 0)"/>
      </g>
     </g>
    </g>
    <g id="ytick_8">
     <g id="line2d_21">
      <path d="M 79.2 98.967273
L 760.32 98.967273
" clip-path="url(#p95fe033cf8)" style="fill: none; stroke: #e5eaf0; stroke-width: 0.8; stroke-linecap: square"/>
     </g>
     <g id="line2d_22">
      <g>
       <use xlink:href="#m30daab40ef" x="79.2" y="98.967273" style="stroke: #000000; stroke-width: 0.8"/>
      </g>
     </g>
     <g id="text_14">
      <!-- 6.2 -->
      <g transform="translate(53.11625 103.526335) scale(0.12 -0.12)">
       <use xlink:href="#DejaVuSans-36"/>
       <use xlink:href="#DejaVuSans-2e" transform="translate(63.623047 0)"/>
       <use xlink:href="#DejaVuSans-32" transform="translate(95.410156 0)"/>
      </g>
     </g>
    </g>
   </g>
   <g id="line2d_23">
    <path d="M 110.16 274.909091
L 116.17165 274.909091
L 122.183301 260.247273
L 128.194951 289.570909
L 134.206602 304.232727
L 140.218252 304.232727
L 146.229903 260.247273
L 152.241553 274.909091
L 158.253204 289.570909
L 164.264854 289.570909
L 170.276505 304.232727
L 176.288155 289.570909
L 182.299806 260.247273
L 188.311456 230.923636
L 194.323107 245.585455
L 200.334757 274.909091
L 206.346408 274.909091
L 212.358058 260.247273
L 218.369709 230.923636
L 224.381359 245.585455
L 230.39301 245.585455
L 236.40466 260.247273
L 242.416311 260.247273
L 248.427961 245.585455
L 254.439612 230.923636
L 260.451262 98.967273
L 266.462913 142.952727
L 272.474563 128.290909
L 278.486214 142.952727
L 284.497864 172.276364
L 290.509515 172.276364
L 296.521165 186.938182
L 302.532816 216.261818
L 308.544466 230.923636
L 314.556117 245.585455
L 320.567767 245.585455
L 326.579417 216.261818
L 332.591068 201.6
L 338.602718 230.923636
L 344.614369 260.247273
L 350.626019 274.909091
L 356.63767 274.909091
L 362.64932 260.247273
L 368.660971 260.247273
L 374.672621 289.570909
L 380.684272 289.570909
L 386.695922 274.909091
L 392.707573 260.247273
L 398.719223 230.923636
L 404.730874 201.6
L 410.742524 157.614545
L 416.754175 113.629091
L 422.765825 142.952727
L 428.777476 201.6
L 434.789126 216.261818
L 440.800777 230.923636
L 446.812427 201.6
L 452.824078 201.6
L 458.835728 172.276364
L 464.847379 201.6
L 470.859029 201.6
L 476.87068 186.938182
L 482.88233 230.923636
L 488.893981 245.585455
L 494.905631 245.585455
L 500.917282 245.585455
L 506.928932 230.923636
L 512.940583 245.585455
L 518.952233 274.909091
L 524.963883 274.909091
L 530.975534 274.909091
L 536.987184 260.247273
L 542.998835 245.585455
L 549.010485 230.923636
L 555.022136 245.585455
L 561.033786 274.909091
L 567.045437 274.909091
L 573.057087 274.909091
L 579.068738 245.585455
L 585.080388 230.923636
L 591.092039 260.247273
L 597.103689 274.909091
L 603.11534 274.909091
L 609.12699 260.247273
L 615.138641 245.585455
L 621.150291 216.261818
L 627.161942 245.585455
L 633.173592 260.247273
L 639.185243 274.909091
L 645.196893 274.909091
L 651.208544 245.585455
L 657.220194 230.923636
L 663.231845 245.585455
L 669.243495 260.247273
L 675.255146 260.247273
L 681.266796 260.247273
L 687.278447 245.585455
L 693.290097 230.923636
L 699.301748 216.261818
L 705.313398 245.585455
L 711.325049 260.247273
L 717.336699 274.909091
L 723.34835 245.585455
L 729.36 230.923636
" clip-path="url(#p95fe033cf8)" style="fill: none; stroke: #3675b5; stroke-width: 2; stroke-linecap: square"/>
    <defs>
     <path id="m8f7ebd1b52" d="M 0 1.5
C 0.397805 1.5 0.77937 1.341951 1.06066 1.06066
C 1.341951 0.77937 1.5 0.397805 1.5 0
C 1.5 -0.397805 1.341951 -0.77937 1.06066 -1.06066
C 0.77937 -1.341951 0.397805 -1.5 0 -1.5
C -0.397805 -1.5 -0.77937 -1.341951 -1.06066 -1.06066
C -1.341951 -0.77937 -1.5 -0.397805 -1.5 0
C -1.5 0.397805 -1.341951 0.77937 -1.06066 1.06066
C -0.77937 1.341951 -0.397805 1.5 0 1.5
z
" style="stroke: #3675b5"/>
    </defs>
    <g clip-path="url(#p95fe033cf8)">
     <use xlink:href="#m8f7ebd1b52" x="110.16" y="274.909091" style="fill: #3675b5; stroke: #3675b5"/>
     <use xlink:href="#m8f7ebd1b52" x="116.17165" y="274.909091" style="fill: #3675b5; stroke: #3675b5"/>
     <use xlink:href="#m8f7ebd1b52" x="122.183301" y="260.247273" style="fill: #3675b5; stroke: #3675b5"/>
     <use xlink:href="#m8f7ebd1b52" x="128.194951" y="289.570909" style="fill: #3675b5; stroke: #3675b5"/>
     <use xlink:href="#m8f7ebd1b52" x="134.206602" y="304.232727" style="fill: #3675b5; stroke: #3675b5"/>
     <use xlink:href="#m8f7ebd1b52" x="140.218252" y="304.232727" style="fill: #3675b5; stroke: #3675b5"/>
     <use xlink:href="#m8f7ebd1b52" x="146.229903" y="260.247273" style="fill: #3675b5; stroke: #3675b5"/>
     <use xlink:href="#m8f7ebd1b52" x="152.241553" y="274.909091" style="fill: #3675b5; stroke: #3675b5"/>
     <use xlink:href="#m8f7ebd1b52" x="158.253204" y="289.570909" style="fill: #3675b5; stroke: #3675b5"/>
     <use xlink:href="#m8f7ebd1b52" x="164.264854" y="289.570909" style="fill: #3675b5; stroke: #3675b5"/>
     <use xlink:href="#m8f7ebd1b52" x="170.276505" y="304.232727" style="fill: #3675b5; stroke: #3675b5"/>
     <use xlink:href="#m8f7ebd1b52" x="176.288155" y="289.570909" style="fill: #3675b5; stroke: #3675b5"/>
     <use xlink:href="#m8f7ebd1b52" x="182.299806" y="260.247273" style="fill: #3675b5; stroke: #3675b5"/>
     <use xlink:href="#m8f7ebd1b52" x="188.311456" y="230.923636" style="fill: #3675b5; stroke: #3675b5"/>
     <use xlink:href="#m8f7ebd1b52" x="194.323107" y="245.585455" style="fill: #3675b5; stroke: #3675b5"/>
     <use xlink:href="#m8f7ebd1b52" x="200.334757" y="274.909091" style="fill: #3675b5; stroke: #3675b5"/>
     <use xlink:href="#m8f7ebd1b52" x="206.346408" y="274.909091" style="fill: #3675b5; stroke: #3675b5"/>
     <use xlink:href="#m8f7ebd1b52" x="212.358058" y="260.247273" style="fill: #3675b5; stroke: #3675b5"/>
     <use xlink:href="#m8f7ebd1b52" x="218.369709" y="230.923636" style="fill: #3675b5; stroke: #3675b5"/>
     <use xlink:href="#m8f7ebd1b52" x="224.381359" y="245.585455" style="fill: #3675b5; stroke: #3675b5"/>
     <use xlink:href="#m8f7ebd1b52" x="230.39301" y="245.585455" style="fill: #3675b5; stroke: #3675b5"/>
     <use xlink:href="#m8f7ebd1b52" x="236.40466" y="260.247273" style="fill: #3675b5; stroke: #3675b5"/>
     <use xlink:href="#m8f7ebd1b52" x="242.416311" y="260.247273" style="fill: #3675b5; stroke: #3675b5"/>
     <use xlink:href="#m8f7ebd1b52" x="248.427961" y="245.585455" style="fill: #3675b5; stroke: #3675b5"/>
     <use xlink:href="#m8f7ebd1b52" x="254.439612" y="230.923636" style="fill: #3675b5; stroke: #3675b5"/>
     <use xlink:href="#m8f7ebd1b52" x="260.451262" y="98.967273" style="fill: #3675b5; stroke: #3675b5"/>
     <use xlink:href="#m8f7ebd1b52" x="266.462913" y="142.952727" style="fill: #3675b5; stroke: #3675b5"/>
     <use xlink:href="#m8f7ebd1b52" x="272.474563" y="128.290909" style="fill: #3675b5; stroke: #3675b5"/>
     <use xlink:href="#m8f7ebd1b52" x="278.486214" y="142.952727" style="fill: #3675b5; stroke: #3675b5"/>
     <use xlink:href="#m8f7ebd1b52" x="284.497864" y="172.276364" style="fill: #3675b5; stroke: #3675b5"/>
     <use xlink:href="#m8f7ebd1b52" x="290.509515" y="172.276364" style="fill: #3675b5; stroke: #3675b5"/>
     <use xlink:href="#m8f7ebd1b52" x="296.521165" y="186.938182" style="fill: #3675b5; stroke: #3675b5"/>
     <use xlink:href="#m8f7ebd1b52" x="302.532816" y="216.261818" style="fill: #3675b5; stroke: #3675b5"/>
     <use xlink:href="#m8f7ebd1b52" x="308.544466" y="230.923636" style="fill: #3675b5; stroke: #3675b5"/>
     <use xlink:href="#m8f7ebd1b52" x="314.556117" y="245.585455" style="fill: #3675b5; stroke: #3675b5"/>
     <use xlink:href="#m8f7ebd1b52" x="320.567767" y="245.585455" style="fill: #3675b5; stroke: #3675b5"/>
     <use xlink:href="#m8f7ebd1b52" x="326.579417" y="216.261818" style="fill: #3675b5; stroke: #3675b5"/>
     <use xlink:href="#m8f7ebd1b52" x="332.591068" y="201.6" style="fill: #3675b5; stroke: #3675b5"/>
     <use xlink:href="#m8f7ebd1b52" x="338.602718" y="230.923636" style="fill: #3675b5; stroke: #3675b5"/>
     <use xlink:href="#m8f7ebd1b52" x="344.614369" y="260.247273" style="fill: #3675b5; stroke: #3675b5"/>
     <use xlink:href="#m8f7ebd1b52" x="350.626019" y="274.909091" style="fill: #3675b5; stroke: #3675b5"/>
     <use xlink:href="#m8f7ebd1b52" x="356.63767" y="274.909091" style="fill: #3675b5; stroke: #3675b5"/>
     <use xlink:href="#m8f7ebd1b52" x="362.64932" y="260.247273" style="fill: #3675b5; stroke: #3675b5"/>
     <use xlink:href="#m8f7ebd1b52" x="368.660971" y="260.247273" style="fill: #3675b5; stroke: #3675b5"/>
     <use xlink:href="#m8f7ebd1b52" x="374.672621" y="289.570909" style="fill: #3675b5; stroke: #3675b5"/>
     <use xlink:href="#m8f7ebd1b52" x="380.684272" y="289.570909" style="fill: #3675b5; stroke: #3675b5"/>
     <use xlink:href="#m8f7ebd1b52" x="386.695922" y="274.909091" style="fill: #3675b5; stroke: #3675b5"/>
     <use xlink:href="#m8f7ebd1b52" x="392.707573" y="260.247273" style="fill: #3675b5; stroke: #3675b5"/>
     <use xlink:href="#m8f7ebd1b52" x="398.719223" y="230.923636" style="fill: #3675b5; stroke: #3675b5"/>
     <use xlink:href="#m8f7ebd1b52" x="404.730874" y="201.6" style="fill: #3675b5; stroke: #3675b5"/>
     <use xlink:href="#m8f7ebd1b52" x="410.742524" y="157.614545" style="fill: #3675b5; stroke: #3675b5"/>
     <use xlink:href="#m8f7ebd1b52" x="416.754175" y="113.629091" style="fill: #3675b5; stroke: #3675b5"/>
     <use xlink:href="#m8f7ebd1b52" x="422.765825" y="142.952727" style="fill: #3675b5; stroke: #3675b5"/>
     <use xlink:href="#m8f7ebd1b52" x="428.777476" y="201.6" style="fill: #3675b5; stroke: #3675b5"/>
     <use xlink:href="#m8f7ebd1b52" x="434.789126" y="216.261818" style="fill: #3675b5; stroke: #3675b5"/>
     <use xlink:href="#m8f7ebd1b52" x="440.800777" y="230.923636" style="fill: #3675b5; stroke: #3675b5"/>
     <use xlink:href="#m8f7ebd1b52" x="446.812427" y="201.6" style="fill: #3675b5; stroke: #3675b5"/>
     <use xlink:href="#m8f7ebd1b52" x="452.824078" y="201.6" style="fill: #3675b5; stroke: #3675b5"/>
     <use xlink:href="#m8f7ebd1b52" x="458.835728" y="172.276364" style="fill: #3675b5; stroke: #3675b5"/>
     <use xlink:href="#m8f7ebd1b52" x="464.847379" y="201.6" style="fill: #3675b5; stroke: #3675b5"/>
     <use xlink:href="#m8f7ebd1b52" x="470.859029" y="201.6" style="fill: #3675b5; stroke: #3675b5"/>
     <use xlink:href="#m8f7ebd1b52" x="476.87068" y="186.938182" style="fill: #3675b5; stroke: #3675b5"/>
     <use xlink:href="#m8f7ebd1b52" x="482.88233" y="230.923636" style="fill: #3675b5; stroke: #3675b5"/>
     <use xlink:href="#m8f7ebd1b52" x="488.893981" y="245.585455" style="fill: #3675b5; stroke: #3675b5"/>
     <use xlink:href="#m8f7ebd1b52" x="494.905631" y="245.585455" style="fill: #3675b5; stroke: #3675b5"/>
     <use xlink:href="#m8f7ebd1b52" x="500.917282" y="245.585455" style="fill: #3675b5; stroke: #3675b5"/>
     <use xlink:href="#m8f7ebd1b52" x="506.928932" y="230.923636" style="fill: #3675b5; stroke: #3675b5"/>
     <use xlink:href="#m8f7ebd1b52" x="512.940583" y="245.585455" style="fill: #3675b5; stroke: #3675b5"/>
     <use xlink:href="#m8f7ebd1b52" x="518.952233" y="274.909091" style="fill: #3675b5; stroke: #3675b5"/>
     <use xlink:href="#m8f7ebd1b52" x="524.963883" y="274.909091" style="fill: #3675b5; stroke: #3675b5"/>
     <use xlink:href="#m8f7ebd1b52" x="530.975534" y="274.909091" style="fill: #3675b5; stroke: #3675b5"/>
     <use xlink:href="#m8f7ebd1b52" x="536.987184" y="260.247273" style="fill: #3675b5; stroke: #3675b5"/>
     <use xlink:href="#m8f7ebd1b52" x="542.998835" y="245.585455" style="fill: #3675b5; stroke: #3675b5"/>
     <use xlink:href="#m8f7ebd1b52" x="549.010485" y="230.923636" style="fill: #3675b5; stroke: #3675b5"/>
     <use xlink:href="#m8f7ebd1b52" x="555.022136" y="245.585455" style="fill: #3675b5; stroke: #3675b5"/>
     <use xlink:href="#m8f7ebd1b52" x="561.033786" y="274.909091" style="fill: #3675b5; stroke: #3675b5"/>
     <use xlink:href="#m8f7ebd1b52" x="567.045437" y="274.909091" style="fill: #3675b5; stroke: #3675b5"/>
     <use xlink:href="#m8f7ebd1b52" x="573.057087" y="274.909091" style="fill: #3675b5; stroke: #3675b5"/>
     <use xlink:href="#m8f7ebd1b52" x="579.068738" y="245.585455" style="fill: #3675b5; stroke: #3675b5"/>
     <use xlink:href="#m8f7ebd1b52" x="585.080388" y="230.923636" style="fill: #3675b5; stroke: #3675b5"/>
     <use xlink:href="#m8f7ebd1b52" x="591.092039" y="260.247273" style="fill: #3675b5; stroke: #3675b5"/>
     <use xlink:href="#m8f7ebd1b52" x="597.103689" y="274.909091" style="fill: #3675b5; stroke: #3675b5"/>
     <use xlink:href="#m8f7ebd1b52" x="603.11534" y="274.909091" style="fill: #3675b5; stroke: #3675b5"/>
     <use xlink:href="#m8f7ebd1b52" x="609.12699" y="260.247273" style="fill: #3675b5; stroke: #3675b5"/>
     <use xlink:href="#m8f7ebd1b52" x="615.138641" y="245.585455" style="fill: #3675b5; stroke: #3675b5"/>
     <use xlink:href="#m8f7ebd1b52" x="621.150291" y="216.261818" style="fill: #3675b5; stroke: #3675b5"/>
     <use xlink:href="#m8f7ebd1b52" x="627.161942" y="245.585455" style="fill: #3675b5; stroke: #3675b5"/>
     <use xlink:href="#m8f7ebd1b52" x="633.173592" y="260.247273" style="fill: #3675b5; stroke: #3675b5"/>
     <use xlink:href="#m8f7ebd1b52" x="639.185243" y="274.909091" style="fill: #3675b5; stroke: #3675b5"/>
     <use xlink:href="#m8f7ebd1b52" x="645.196893" y="274.909091" style="fill: #3675b5; stroke: #3675b5"/>
     <use xlink:href="#m8f7ebd1b52" x="651.208544" y="245.585455" style="fill: #3675b5; stroke: #3675b5"/>
     <use xlink:href="#m8f7ebd1b52" x="657.220194" y="230.923636" style="fill: #3675b5; stroke: #3675b5"/>
     <use xlink:href="#m8f7ebd1b52" x="663.231845" y="245.585455" style="fill: #3675b5; stroke: #3675b5"/>
     <use xlink:href="#m8f7ebd1b52" x="669.243495" y="260.247273" style="fill: #3675b5; stroke: #3675b5"/>
     <use xlink:href="#m8f7ebd1b52" x="675.255146" y="260.247273" style="fill: #3675b5; stroke: #3675b5"/>
     <use xlink:href="#m8f7ebd1b52" x="681.266796" y="260.247273" style="fill: #3675b5; stroke: #3675b5"/>
     <use xlink:href="#m8f7ebd1b52" x="687.278447" y="245.585455" style="fill: #3675b5; stroke: #3675b5"/>
     <use xlink:href="#m8f7ebd1b52" x="693.290097" y="230.923636" style="fill: #3675b5; stroke: #3675b5"/>
     <use xlink:href="#m8f7ebd1b52" x="699.301748" y="216.261818" style="fill: #3675b5; stroke: #3675b5"/>
     <use xlink:href="#m8f7ebd1b52" x="705.313398" y="245.585455" style="fill: #3675b5; stroke: #3675b5"/>
     <use xlink:href="#m8f7ebd1b52" x="711.325049" y="260.247273" style="fill: #3675b5; stroke: #3675b5"/>
     <use xlink:href="#m8f7ebd1b52" x="717.336699" y="274.909091" style="fill: #3675b5; stroke: #3675b5"/>
     <use xlink:href="#m8f7ebd1b52" x="723.34835" y="245.585455" style="fill: #3675b5; stroke: #3675b5"/>
     <use xlink:href="#m8f7ebd1b52" x="729.36" y="230.923636" style="fill: #3675b5; stroke: #3675b5"/>
    </g>
   </g>
   <g id="patch_3">
    <path d="M 79.2 314.496
L 79.2 88.704
" style="fill: none; stroke: #8492a6; stroke-width: 0.8; stroke-linejoin: miter; stroke-linecap: square"/>
   </g>
   <g id="patch_4">
    <path d="M 79.2 314.496
L 760.32 314.496
" style="fill: none; stroke: #8492a6; stroke-width: 0.8; stroke-linejoin: miter; stroke-linecap: square"/>
   </g>
   <g id="legend_1">
    <g id="line2d_24">
     <path d="M 642.62 103.112281
L 653.62 103.112281
L 664.62 103.112281
" style="fill: none; stroke: #3675b5; stroke-width: 2; stroke-linecap: square"/>
     <g>
      <use xlink:href="#m8f7ebd1b52" x="653.62" y="103.112281" style="fill: #3675b5; stroke: #3675b5"/>
     </g>
    </g>
    <g id="text_15">
     <!-- 城镇调查失业率 -->
     <g style="fill: #203047" transform="translate(673.42 106.962281) scale(0.11 -0.11)">
      <defs>
       <path id="DroidSansFallback-57ce" d="M 350 3700
L 975 3700
L 975 5075
L 1450 5075
L 1450 3700
L 2125 3700
L 2125 3225
L 1450 3225
L 1450 1250
L 2025 1500
L 2100 1050
Q 1325 650 375 375
L 275 875
L 975 1100
L 975 3225
L 350 3225
L 350 3700
z
M 6025 4200
L 6025 3750
L 4675 3750
Q 4725 2050 4900 1400
Q 5200 2075 5400 3175
L 5850 3075
Q 5550 1525 5100 725
Q 5400 0 5575 0
Q 5650 0 5700 1025
L 6200 850
Q 6050 -575 5575 -575
Q 5200 -575 4800 300
Q 4425 -200 3850 -625
L 3525 -275
Q 4175 250 4600 850
Q 4275 1750 4200 3750
L 2825 3750
L 2825 2825
L 4000 2825
Q 4000 925 3862 600
Q 3725 275 3325 275
L 3000 325
L 2900 800
L 3325 750
Q 3425 750 3475 937
Q 3525 1125 3525 2400
L 2825 2400
Q 2825 575 2100 -550
L 1675 -300
Q 2375 825 2375 2200
L 2375 4200
L 4200 4200
L 4175 5175
L 4675 5175
L 4675 4200
L 6025 4200
z
M 5325 5175
L 5825 4575
L 5475 4300
L 4950 4925
L 5325 5175
z
" transform="scale(0.015625)"/>
       <path id="DroidSansFallback-9547" d="M 1175 5175
L 1625 5025
L 1400 4400
L 2550 4400
L 2550 3950
L 1175 3950
Q 950 3500 600 3125
L 250 3450
Q 875 4250 1175 5175
z
M 1325 2950
L 900 2950
L 900 3375
L 2425 3375
L 2425 2950
L 1775 2950
L 1775 2000
L 2575 2000
L 2575 1550
L 1775 1550
L 1775 175
L 2450 500
L 2525 50
Q 2125 -225 1550 -425
L 1325 -200
L 1325 1550
L 475 1550
L 475 2000
L 1325 2000
L 1325 2950
z
M 2925 4750
L 4200 4750
L 4275 5200
L 4825 5125
L 4750 4750
L 5950 4750
L 5950 4325
L 4675 4325
L 4600 3925
L 5775 3925
L 5775 950
L 6075 950
L 6075 525
L 2775 525
L 2775 950
L 3050 950
L 3050 3925
L 4075 3925
L 4125 4325
L 2925 4325
L 2925 4750
z
M 5275 3150
L 5275 3500
L 3550 3500
L 3550 3150
L 5275 3150
z
M 3550 2775
L 3550 2425
L 5275 2425
L 5275 2775
L 3550 2775
z
M 5275 2050
L 3550 2050
L 3550 1700
L 5275 1700
L 5275 2050
z
M 5275 1300
L 3550 1300
L 3550 950
L 5275 950
L 5275 1300
z
M 4925 400
Q 5475 200 6000 -175
L 5750 -625
Q 5200 -175 4625 25
L 4925 400
z
M 3650 400
L 4050 75
Q 3625 -325 3025 -600
L 2700 -175
Q 3225 25 3650 400
z
" transform="scale(0.015625)"/>
       <path id="DroidSansFallback-8c03" d="M 1275 5175
Q 1700 4675 1975 4125
L 1500 3850
Q 1250 4400 825 4900
L 1275 5175
z
M 325 3325
L 1675 3325
L 1675 425
L 2200 1000
L 2525 700
Q 2175 225 1575 -250
L 1200 75
L 1200 2875
L 325 2875
L 325 3325
z
M 5875 4975
L 5875 100
Q 5875 -550 5325 -550
L 4625 -500
L 4525 -50
L 5225 -100
Q 5400 -100 5400 225
L 5400 4525
L 3225 4525
L 3225 2450
Q 3225 725 2850 -575
L 2425 -325
Q 2775 975 2775 2600
L 2775 4975
L 5875 4975
z
M 3475 3750
L 4050 3750
L 4050 4275
L 4525 4275
L 4525 3750
L 5100 3750
L 5100 3325
L 4525 3325
L 4525 2800
L 5200 2800
L 5200 2375
L 3425 2375
L 3425 2800
L 4050 2800
L 4050 3325
L 3475 3325
L 3475 3750
z
M 3525 1975
L 5075 1975
L 5075 450
L 3525 450
L 3525 1975
z
M 3975 875
L 4625 875
L 4625 1550
L 3975 1550
L 3975 875
z
" transform="scale(0.015625)"/>
       <path id="DroidSansFallback-67e5" d="M 5275 2600
L 5275 450
L 1125 450
L 1125 2600
L 5275 2600
z
M 4775 1725
L 4775 2175
L 1625 2175
L 1625 1725
L 4775 1725
z
M 1625 1300
L 1625 875
L 4775 875
L 4775 1300
L 1625 1300
z
M 400 100
L 5975 100
L 5975 -375
L 400 -375
L 400 100
z
M 750 4725
L 2950 4725
L 2950 5200
L 3450 5200
L 3450 4725
L 5650 4725
L 5650 4275
L 3825 4275
Q 4700 3475 6025 3125
L 5775 2650
Q 4375 3150 3450 4100
L 3450 2775
L 2950 2775
L 2950 4100
Q 2075 3175 700 2625
L 375 3050
Q 1725 3500 2525 4275
L 750 4275
L 750 4725
z
" transform="scale(0.015625)"/>
       <path id="DroidSansFallback-5931" d="M 1600 4975
L 2075 4875
L 1850 4075
L 3050 4075
L 3050 5175
L 3550 5175
L 3550 4075
L 5550 4075
L 5550 3600
L 3550 3600
L 3500 2300
L 5900 2300
L 5900 1825
L 3575 1825
Q 4350 500 6150 -75
L 5825 -575
Q 3875 225 3225 1550
Q 2550 225 600 -625
L 325 -150
Q 2250 700 2800 1825
L 600 1825
L 600 2300
L 3000 2300
L 3050 3600
L 1625 3600
Q 1325 2925 925 2475
L 550 2825
Q 1275 3675 1600 4975
z
" transform="scale(0.015625)"/>
       <path id="DroidSansFallback-4e1a" d="M 375 250
L 2300 250
L 2300 5050
L 2800 5050
L 2800 250
L 3600 250
L 3600 5050
L 4100 5050
L 4100 250
L 6025 250
L 6025 -225
L 375 -225
L 375 250
z
M 5300 3950
L 5800 3775
Q 5425 2325 4825 1150
L 4350 1400
Q 4900 2550 5300 3950
z
M 1200 3875
Q 1700 2750 1950 1375
L 1375 1175
Q 1150 2575 675 3725
L 1200 3875
z
" transform="scale(0.015625)"/>
       <path id="DroidSansFallback-7387" d="M 3275 5200
Q 3475 4900 3575 4550
L 6050 4550
L 6050 4075
L 350 4075
L 350 4550
L 2950 4550
L 2750 5025
L 3275 5200
z
M 2975 1625
L 3450 1625
L 3450 1100
L 6000 1100
L 6000 650
L 3450 650
L 3450 -575
L 2975 -575
L 2975 650
L 400 650
L 400 1100
L 2975 1100
L 2975 1625
z
M 2925 4450
L 3375 4325
Q 3000 3550 2700 3200
L 3475 3275
L 3900 3800
L 4350 3650
Q 3625 2675 2725 2025
L 3875 2250
L 3650 2550
L 4050 2750
Q 4475 2250 4775 1625
L 4325 1425
L 4100 1900
L 2050 1525
L 1925 1925
Q 2525 2300 3075 2850
L 2175 2725
L 2100 3150
Q 2625 3775 2925 4450
z
M 1100 3975
Q 1500 3625 1775 3200
L 1325 2950
Q 1075 3350 650 3700
L 1100 3975
z
M 5325 3975
L 5750 3725
Q 5325 3175 4900 2850
L 4525 3200
Q 5025 3575 5325 3975
z
M 1625 2725
L 2000 2450
Q 1550 1900 875 1425
L 500 1800
Q 1200 2275 1625 2725
z
M 4925 2650
Q 5450 2350 5900 1925
L 5525 1475
Q 5100 1975 4600 2300
L 4925 2650
z
" transform="scale(0.015625)"/>
      </defs>
      <use xlink:href="#DroidSansFallback-57ce"/>
      <use xlink:href="#DroidSansFallback-9547" transform="translate(100 0)"/>
      <use xlink:href="#DroidSansFallback-8c03" transform="translate(200 0)"/>
      <use xlink:href="#DroidSansFallback-67e5" transform="translate(300 0)"/>
      <use xlink:href="#DroidSansFallback-5931" transform="translate(400 0)"/>
      <use xlink:href="#DroidSansFallback-4e1a" transform="translate(500 0)"/>
      <use xlink:href="#DroidSansFallback-7387" transform="translate(600 0)"/>
     </g>
    </g>
   </g>
  </g>
  <g id="text_16">
   <!-- 全国城镇调查失业率 -->
   <g style="fill: #203047" transform="translate(47.52 32.256) scale(0.22 -0.22)">
    <defs>
     <path id="DroidSansFallback-5168" d="M 5125 2875
L 5125 2625
L 3475 2625
L 3475 1625
L 5250 1625
L 5250 1150
L 3475 1150
L 3475 150
L 5750 150
L 5750 -325
L 625 -325
L 625 150
L 2950 150
L 2950 1150
L 1175 1150
L 1175 1625
L 2950 1625
L 2950 2625
L 1225 2625
L 1225 2850
L 525 2450
L 275 2950
Q 2250 4025 3100 5225
L 3625 5075
L 3500 4900
Q 4750 3650 6150 2975
L 5850 2450
L 5125 2875
z
M 3200 4525
Q 2475 3725 1575 3100
L 4825 3100
Q 3900 3775 3200 4525
z
" transform="scale(0.015625)"/>
     <path id="DroidSansFallback-56fd" d="M 5825 4975
L 5825 -575
L 5325 -575
L 5325 -225
L 1075 -225
L 1075 -575
L 575 -575
L 575 4975
L 5825 4975
z
M 1075 250
L 5325 250
L 5325 4500
L 1075 4500
L 1075 250
z
M 1425 3975
L 4975 3975
L 4975 3525
L 3450 3525
L 3450 2725
L 4825 2725
L 4825 2275
L 3450 2275
L 3450 1200
L 5050 1200
L 5050 750
L 1350 750
L 1350 1200
L 2975 1200
L 2975 2275
L 1600 2275
L 1600 2725
L 2975 2725
L 2975 3525
L 1425 3525
L 1425 3975
z
M 4275 2125
L 4750 1525
L 4325 1325
L 3900 1950
L 4275 2125
z
" transform="scale(0.015625)"/>
    </defs>
    <use xlink:href="#DroidSansFallback-5168"/>
    <use xlink:href="#DroidSansFallback-56fd" transform="translate(100 0)"/>
    <use xlink:href="#DroidSansFallback-57ce" transform="translate(200 0)"/>
    <use xlink:href="#DroidSansFallback-9547" transform="translate(300 0)"/>
    <use xlink:href="#DroidSansFallback-8c03" transform="translate(400 0)"/>
    <use xlink:href="#DroidSansFallback-67e5" transform="translate(500 0)"/>
    <use xlink:href="#DroidSansFallback-5931" transform="translate(600 0)"/>
    <use xlink:href="#DroidSansFallback-4e1a" transform="translate(700 0)"/>
    <use xlink:href="#DroidSansFallback-7387" transform="translate(800 0)"/>
   </g>
  </g>
  <g id="text_17">
   <!-- 单位：%  |  期间：2018-01 至 2026-08 -->
   <g style="fill: #203047" transform="translate(47.52 60.48) scale(0.13 -0.13)">
    <defs>
     <path id="DroidSansFallback-5355" d="M 2125 5225
Q 2400 4950 2600 4600
L 2150 4400
Q 1975 4750 1700 5025
L 2125 5225
z
M 4325 5225
L 4850 5100
Q 4675 4650 4400 4275
L 5350 4275
L 5350 1550
L 3450 1550
L 3450 975
L 5950 975
L 5950 525
L 3450 525
L 3450 -625
L 2925 -625
L 2925 525
L 425 525
L 425 975
L 2925 975
L 2925 1550
L 1025 1550
L 1025 4275
L 3825 4275
Q 4150 4750 4325 5225
z
M 1525 3150
L 2925 3150
L 2925 3800
L 1525 3800
L 1525 3150
z
M 3450 3800
L 3450 3150
L 4850 3150
L 4850 3800
L 3450 3800
z
M 1525 2025
L 2925 2025
L 2925 2675
L 1525 2675
L 1525 2025
z
M 3450 2675
L 3450 2025
L 4850 2025
L 4850 2675
L 3450 2675
z
" transform="scale(0.015625)"/>
     <path id="DroidSansFallback-4f4d" d="M 1775 5175
L 2275 5025
L 1625 3600
L 1625 -575
L 1125 -575
L 1125 2800
L 500 2050
L 250 2550
Q 1325 3800 1775 5175
z
M 2175 4100
L 3775 4100
L 3400 5025
L 3925 5200
Q 4175 4700 4325 4100
L 5900 4100
L 5900 3625
L 2175 3625
L 2175 4100
z
M 5025 3400
L 5600 3225
Q 5150 1450 4675 150
L 6075 150
L 6075 -325
L 1975 -325
L 1975 150
L 4125 150
Q 4650 1700 5025 3400
z
M 3025 3275
Q 3425 1950 3550 600
L 3000 450
Q 2875 1875 2475 3125
L 3025 3275
z
" transform="scale(0.015625)"/>
     <path id="DroidSansFallback-ff1a" d="M 3600 3075
Q 3600 2650 3200 2650
Q 2800 2650 2800 3075
Q 2800 3525 3200 3525
Q 3600 3525 3600 3075
z
M 3600 350
Q 3600 -100 3200 -100
Q 2800 -100 2800 350
Q 2800 775 3200 775
Q 3600 775 3600 350
z
" transform="scale(0.015625)"/>
     <path id="DejaVuSans-25" d="M 4653 2053
Q 4381 2053 4226 1822
Q 4072 1591 4072 1178
Q 4072 772 4226 539
Q 4381 306 4653 306
Q 4919 306 5073 539
Q 5228 772 5228 1178
Q 5228 1588 5073 1820
Q 4919 2053 4653 2053
z
M 4653 2450
Q 5147 2450 5437 2106
Q 5728 1763 5728 1178
Q 5728 594 5436 251
Q 5144 -91 4653 -91
Q 4153 -91 3862 251
Q 3572 594 3572 1178
Q 3572 1766 3864 2108
Q 4156 2450 4653 2450
z
M 1428 4353
Q 1159 4353 1004 4120
Q 850 3888 850 3481
Q 850 3069 1003 2837
Q 1156 2606 1428 2606
Q 1700 2606 1854 2837
Q 2009 3069 2009 3481
Q 2009 3884 1853 4118
Q 1697 4353 1428 4353
z
M 4250 4750
L 4750 4750
L 1831 -91
L 1331 -91
L 4250 4750
z
M 1428 4750
Q 1922 4750 2215 4408
Q 2509 4066 2509 3481
Q 2509 2891 2217 2550
Q 1925 2209 1428 2209
Q 931 2209 642 2551
Q 353 2894 353 3481
Q 353 4063 643 4406
Q 934 4750 1428 4750
z
" transform="scale(0.015625)"/>
     <path id="DroidSansFallback-20" transform="scale(0.015625)"/>
     <path id="DejaVuSans-7c" d="M 1344 4891
L 1344 -1509
L 813 -1509
L 813 4891
L 1344 4891
z
" transform="scale(0.015625)"/>
     <path id="DroidSansFallback-671f" d="M 5850 4975
L 5850 150
Q 5850 -550 5250 -550
L 4650 -500
L 4525 25
L 5150 -50
Q 5350 -50 5350 300
L 5350 1500
L 4200 1500
Q 4075 350 3575 -575
L 3125 -250
Q 3725 800 3725 2075
L 3725 4975
L 5850 4975
z
M 4250 3450
L 5350 3450
L 5350 4500
L 4250 4500
L 4250 3450
z
M 4250 1950
L 5350 1950
L 5350 3000
L 4250 3000
L 4250 1950
z
M 400 4425
L 900 4425
L 900 5175
L 1400 5175
L 1400 4425
L 2450 4425
L 2450 5175
L 2950 5175
L 2950 4425
L 3450 4425
L 3450 3975
L 2950 3975
L 2950 1250
L 3425 1250
L 3425 800
L 325 800
L 325 1250
L 900 1250
L 900 3975
L 400 3975
L 400 4425
z
M 1400 3350
L 2450 3350
L 2450 3975
L 1400 3975
L 1400 3350
z
M 1400 2300
L 2450 2300
L 2450 2925
L 1400 2925
L 1400 2300
z
M 1400 1250
L 2450 1250
L 2450 1875
L 1400 1875
L 1400 1250
z
M 1325 675
L 1750 400
Q 1325 -225 775 -600
L 400 -175
Q 975 200 1325 675
z
M 2525 675
Q 2850 300 3050 -125
L 2650 -350
Q 2450 50 2125 425
L 2525 675
z
" transform="scale(0.015625)"/>
     <path id="DroidSansFallback-95f4" d="M 1600 5250
Q 1950 4850 2175 4375
L 1725 4100
Q 1525 4575 1175 4975
L 1600 5250
z
M 2675 4950
L 5750 4950
L 5750 100
Q 5750 -600 5175 -600
L 4700 -575
L 4575 -50
L 5075 -100
Q 5250 -100 5250 250
L 5250 4500
L 2675 4500
L 2675 4950
z
M 650 4050
L 1150 4050
L 1150 -575
L 650 -575
L 650 4050
z
M 4325 3525
L 4325 550
L 2050 550
L 2050 3525
L 4325 3525
z
M 3850 2275
L 3850 3075
L 2525 3075
L 2525 2275
L 3850 2275
z
M 2525 1800
L 2525 975
L 3850 975
L 3850 1800
L 2525 1800
z
" transform="scale(0.015625)"/>
     <path id="DroidSansFallback-81f3" d="M 650 4875
L 5775 4875
L 5775 4400
L 2975 4400
Q 2450 3475 1850 3000
L 4600 3200
L 4025 3825
L 4475 4125
Q 5150 3475 5825 2575
L 5350 2200
L 4950 2750
L 3450 2600
L 3450 1650
L 5575 1650
L 5575 1175
L 3450 1175
L 3450 75
L 5975 75
L 5975 -400
L 450 -400
L 450 75
L 2925 75
L 2925 1175
L 800 1175
L 800 1650
L 2925 1650
L 2925 2575
L 1050 2475
L 900 2950
Q 1725 3450 2350 4400
L 650 4400
L 650 4875
z
" transform="scale(0.015625)"/>
    </defs>
    <use xlink:href="#DroidSansFallback-5355"/>
    <use xlink:href="#DroidSansFallback-4f4d" transform="translate(100 0)"/>
    <use xlink:href="#DroidSansFallback-ff1a" transform="translate(200 0)"/>
    <use xlink:href="#DejaVuSans-25" transform="translate(300 0)"/>
    <use xlink:href="#DroidSansFallback-20" transform="translate(395.019531 0)"/>
    <use xlink:href="#DroidSansFallback-20" transform="translate(421.191406 0)"/>
    <use xlink:href="#DejaVuSans-7c" transform="translate(447.363281 0)"/>
    <use xlink:href="#DroidSansFallback-20" transform="translate(481.054688 0)"/>
    <use xlink:href="#DroidSansFallback-20" transform="translate(507.226562 0)"/>
    <use xlink:href="#DroidSansFallback-671f" transform="translate(533.398438 0)"/>
    <use xlink:href="#DroidSansFallback-95f4" transform="translate(633.398438 0)"/>
    <use xlink:href="#DroidSansFallback-ff1a" transform="translate(733.398438 0)"/>
    <use xlink:href="#DejaVuSans-32" transform="translate(833.398438 0)"/>
    <use xlink:href="#DejaVuSans-30" transform="translate(897.021484 0)"/>
    <use xlink:href="#DejaVuSans-31" transform="translate(960.644531 0)"/>
    <use xlink:href="#DejaVuSans-38" transform="translate(1024.267578 0)"/>
    <use xlink:href="#DejaVuSans-2d" transform="translate(1087.890625 0)"/>
    <use xlink:href="#DejaVuSans-30" transform="translate(1123.974609 0)"/>
    <use xlink:href="#DejaVuSans-31" transform="translate(1187.597656 0)"/>
    <use xlink:href="#DroidSansFallback-20" transform="translate(1251.220703 0)"/>
    <use xlink:href="#DroidSansFallback-81f3" transform="translate(1277.392578 0)"/>
    <use xlink:href="#DroidSansFallback-20" transform="translate(1377.392578 0)"/>
    <use xlink:href="#DejaVuSans-32" transform="translate(1403.564453 0)"/>
    <use xlink:href="#DejaVuSans-30" transform="translate(1467.1875 0)"/>
    <use xlink:href="#DejaVuSans-32" transform="translate(1530.810547 0)"/>
    <use xlink:href="#DejaVuSans-36" transform="translate(1594.433594 0)"/>
    <use xlink:href="#DejaVuSans-2d" transform="translate(1658.056641 0)"/>
    <use xlink:href="#DejaVuSans-30" transform="translate(1694.140625 0)"/>
    <use xlink:href="#DejaVuSans-38" transform="translate(1757.763672 0)"/>
   </g>
  </g>
  <g id="text_18">
   <!-- 来源：国家统计局；缺失处断线。快照 2026-10-02（UTC） -->
   <g style="fill: #203047" transform="translate(47.52 370.944) scale(0.1 -0.1)">
    <defs>
     <path id="DroidSansFallback-6765" d="M 625 4575
L 2950 4575
L 2950 5175
L 3450 5175
L 3450 4575
L 5775 4575
L 5775 4100
L 3450 4100
L 3450 2500
L 6075 2500
L 6075 2025
L 3900 2025
Q 4750 850 6125 300
L 5850 -250
Q 4375 475 3450 1900
L 3450 -575
L 2950 -575
L 2950 1850
Q 2075 525 600 -275
L 250 175
Q 1700 900 2525 2025
L 325 2025
L 325 2500
L 2950 2500
L 2950 4100
L 625 4100
L 625 4575
z
M 4900 3950
L 5350 3675
Q 4925 3025 4500 2650
L 4100 3000
Q 4600 3425 4900 3950
z
M 1500 3925
Q 1925 3425 2200 2875
L 1725 2600
Q 1475 3150 1050 3650
L 1500 3925
z
" transform="scale(0.015625)"/>
     <path id="DroidSansFallback-6e90" d="M 6025 5050
L 6025 4600
L 4525 4600
L 4275 3975
L 5725 3975
L 5725 1625
L 4600 1625
L 4600 -50
Q 4575 -600 4000 -600
L 3450 -550
L 3350 -50
L 3950 -100
Q 4075 -100 4100 -12
Q 4125 75 4125 1625
L 2900 1625
L 2900 3975
L 3750 3975
L 4000 4600
L 2475 4600
L 2475 2300
Q 2475 800 1675 -575
L 1250 -250
Q 1975 875 1975 2300
L 1975 5050
L 6025 5050
z
M 3375 3025
L 5250 3025
L 5250 3525
L 3375 3525
L 3375 3025
z
M 3375 2075
L 5250 2075
L 5250 2600
L 3375 2600
L 3375 2075
z
M 3350 1325
L 3775 1200
Q 3375 300 2725 -225
L 2350 75
Q 3050 675 3350 1325
z
M 5275 1300
Q 5825 725 6175 100
L 5725 -175
Q 5400 450 4850 1025
L 5275 1300
z
M 800 5075
L 1600 4350
L 1225 3975
Q 875 4425 425 4800
L 800 5075
z
M 600 3575
Q 1075 3275 1475 2875
L 1125 2475
Q 725 2925 275 3250
L 600 3575
z
M 1100 1900
L 1500 1625
Q 1225 475 700 -600
L 275 -275
Q 800 750 1100 1900
z
" transform="scale(0.015625)"/>
     <path id="DroidSansFallback-5bb6" d="M 3250 5225
L 3525 4625
L 5925 4625
L 5925 3475
L 5425 3475
L 5425 4175
L 975 4175
L 975 3475
L 475 3475
L 475 4625
L 2975 4625
L 2725 5075
L 3250 5225
z
M 1150 3675
L 5250 3675
L 5250 3225
L 3450 3225
L 3125 3000
Q 3600 2575 3775 2050
Q 4575 2375 5200 2900
L 5550 2500
L 4700 1975
Q 5100 900 6000 300
L 5650 -150
Q 4725 550 4275 1750
L 3900 1600
Q 4000 1250 4000 825
Q 4000 -600 3125 -600
L 2200 -525
L 2075 25
L 3125 -75
Q 3450 -75 3450 1100
Q 2275 225 650 -250
L 400 225
Q 2150 700 3350 1625
L 3225 2025
Q 2125 1200 775 850
L 525 1275
Q 1950 1700 2975 2425
L 2700 2725
Q 1825 2250 975 2000
L 650 2450
Q 1775 2700 2700 3225
L 1150 3225
L 1150 3675
z
" transform="scale(0.015625)"/>
     <path id="DroidSansFallback-7edf" d="M 2125 4175
L 2575 4000
Q 1950 2675 1150 1775
L 2300 2100
L 2425 1700
Q 1575 1375 525 1200
L 375 1625
Q 925 2150 1425 2950
L 525 2800
L 425 3275
Q 1000 3975 1375 5175
L 1850 5025
Q 1500 3975 975 3300
L 1700 3375
L 2125 4175
z
M 2425 975
L 2525 525
L 525 -50
L 325 475
L 2425 975
z
M 3700 3975
L 2700 3975
L 2700 4425
L 4075 4425
L 3825 5025
L 4325 5175
Q 4500 4850 4600 4425
L 5975 4425
L 5975 3975
L 4250 3975
Q 3800 2950 3350 2525
L 5050 2800
L 4625 3525
L 5025 3775
Q 5575 2950 5925 2025
L 5475 1775
L 5225 2425
L 4850 2325
L 4850 125
Q 4850 -50 5200 -50
Q 5425 -50 5475 62
Q 5525 175 5550 1050
L 6075 900
Q 6050 -75 5912 -287
Q 5775 -500 5200 -500
Q 4375 -500 4350 -75
L 4350 2250
L 3950 2175
Q 3800 200 2750 -575
L 2425 -150
Q 3300 475 3475 2125
L 2800 2075
L 2675 2475
Q 3275 3000 3700 3975
z
" transform="scale(0.015625)"/>
     <path id="DroidSansFallback-8ba1" d="M 1275 5175
Q 1700 4675 1975 4125
L 1500 3850
Q 1250 4400 825 4900
L 1275 5175
z
M 325 3325
L 1675 3325
L 1675 425
L 2200 1000
L 2525 700
Q 2175 225 1575 -250
L 1200 75
L 1200 2875
L 325 2875
L 325 3325
z
M 2050 3225
L 3825 3225
L 3825 5175
L 4325 5175
L 4325 3225
L 6075 3225
L 6075 2750
L 4325 2750
L 4325 -625
L 3825 -625
L 3825 2750
L 2050 2750
L 2050 3225
z
" transform="scale(0.015625)"/>
     <path id="DroidSansFallback-5c40" d="M 1350 3400
L 1350 2500
Q 1350 750 725 -600
L 250 -300
Q 825 1050 850 2300
L 850 5025
L 5875 5025
L 5875 3400
L 1350 3400
z
M 5375 4600
L 1350 4600
L 1350 3850
L 5375 3850
L 5375 4600
z
M 1075 2850
L 5900 2850
Q 5900 350 5725 -112
Q 5550 -575 5050 -575
L 4200 -525
L 4100 -50
L 5000 -100
Q 5200 -100 5287 162
Q 5375 425 5425 2425
L 1075 2425
L 1075 2850
z
M 1775 1950
L 4550 1950
L 4550 250
L 1775 250
L 1775 1950
z
M 2250 700
L 4075 700
L 4075 1500
L 2250 1500
L 2250 700
z
" transform="scale(0.015625)"/>
     <path id="DroidSansFallback-ff1b" d="M 3650 3075
Q 3650 2650 3275 2650
Q 2875 2650 2875 3075
Q 2875 3525 3275 3525
Q 3650 3525 3650 3075
z
M 3550 750
L 3575 675
Q 3425 25 3025 -825
L 2600 -825
L 2925 750
L 3550 750
z
" transform="scale(0.015625)"/>
     <path id="DroidSansFallback-7f3a" d="M 3225 4150
L 4100 4150
L 4100 5175
L 4600 5175
L 4600 4150
L 5825 4150
L 5700 2325
L 6075 2325
L 6075 1825
L 4800 1825
Q 5175 600 6100 -100
L 5725 -575
Q 4875 225 4450 1450
Q 4175 250 3300 -575
L 2875 -225
Q 3825 700 4025 1825
L 3000 1825
L 3000 2325
L 4100 2325
L 4100 3675
L 3225 3675
L 3225 4150
z
M 4600 3675
L 4600 2325
L 5225 2325
L 5300 3675
L 4600 3675
z
M 900 5200
L 1350 5025
L 1200 4550
L 2925 4550
L 2925 4075
L 1950 4075
L 1950 2925
L 3025 2925
L 3025 2450
L 1950 2450
L 1950 375
L 2375 450
L 2375 1975
L 2850 1975
L 2850 -150
L 2375 -150
L 2375 0
L 525 -275
L 525 1975
L 1025 1975
L 1025 250
L 1450 300
L 1450 2450
L 325 2450
L 325 2925
L 1450 2925
L 1450 4075
L 1050 4075
L 1050 4050
L 675 3300
L 275 3600
Q 700 4300 900 5200
z
" transform="scale(0.015625)"/>
     <path id="DroidSansFallback-5904" d="M 1550 5200
L 2025 5050
L 1775 4075
L 3300 4075
L 3300 3575
L 3250 3300
Q 2950 1975 2550 1250
Q 3075 625 3850 325
Q 4625 25 6100 0
L 5875 -525
Q 4400 -500 3625 -187
Q 2850 125 2250 800
Q 1600 -125 700 -550
L 475 -50
Q 1375 325 1950 1175
Q 1600 1750 1325 2750
L 700 1650
L 350 2025
Q 1100 3300 1550 5200
z
M 1575 3450
Q 1850 2400 2250 1700
Q 2625 2425 2800 3575
L 1625 3575
L 1575 3450
z
M 4050 5175
L 4550 5175
L 4550 3375
Q 5475 2950 6125 2350
L 5825 1900
Q 5275 2425 4550 2825
L 4550 525
L 4050 525
L 4050 5175
z
" transform="scale(0.015625)"/>
     <path id="DroidSansFallback-65ad" d="M 525 4875
L 1000 4875
L 1000 1325
Q 1575 1950 1900 2825
L 1125 2825
L 1125 3250
L 2000 3250
L 2000 5175
L 2450 5175
L 2450 3250
L 3300 3250
L 3300 2825
L 2450 2825
L 2450 2600
L 3325 1650
L 3050 1250
L 2450 2000
L 2450 475
L 2000 475
L 2000 2175
Q 1725 1475 1275 925
L 1000 1275
L 1000 300
L 2925 300
L 2925 -150
L 525 -150
L 525 4875
z
M 2975 4875
L 3400 4725
Q 3175 3975 2900 3450
L 2550 3650
L 2975 4875
z
M 1500 4800
L 1925 3650
L 1550 3475
L 1150 4650
L 1500 4800
z
M 5800 5075
L 6050 4650
Q 5225 4425 4100 4300
L 4100 3150
L 6075 3150
L 6075 2725
L 5475 2725
L 5475 -500
L 5025 -500
L 5025 2725
L 4100 2725
Q 4075 1225 3912 587
Q 3750 -50 3400 -550
L 3000 -225
Q 3350 250 3487 975
Q 3625 1700 3625 4700
Q 4975 4825 5800 5075
z
" transform="scale(0.015625)"/>
     <path id="DroidSansFallback-7ebf" d="M 2125 4175
L 2575 4000
Q 1950 2675 1150 1775
L 2300 2100
L 2425 1700
Q 1575 1375 525 1200
L 375 1625
Q 925 2150 1425 2950
L 525 2800
L 425 3275
Q 1000 3975 1375 5175
L 1850 5025
Q 1500 3975 975 3300
L 1700 3375
L 2125 4175
z
M 2425 975
L 2525 525
L 525 -50
L 325 475
L 2425 975
z
M 5625 4075
L 5675 3600
L 4225 3350
L 4275 2550
L 5950 2900
L 6000 2425
L 4350 2075
L 4600 1125
Q 5025 1525 5375 2050
L 5825 1825
Q 5375 1100 4825 600
Q 5225 -25 5450 -25
Q 5575 -25 5625 825
L 6125 600
Q 5925 -600 5450 -600
Q 5000 -600 4450 300
Q 3775 -150 2925 -450
L 2650 50
Q 3600 375 4200 800
Q 3975 1275 3850 1975
L 2575 1700
L 2500 2175
L 3800 2450
L 3725 3275
L 2775 3125
L 2700 3600
L 3700 3750
L 3675 5175
L 4175 5175
L 4200 3850
L 5625 4075
z
M 4875 5150
L 5400 4500
L 5025 4200
L 4475 4875
L 4875 5150
z
" transform="scale(0.015625)"/>
     <path id="DroidSansFallback-3002" d="M 150 125
Q 150 475 400 725
Q 650 975 1025 975
Q 1375 975 1625 725
Q 1875 475 1875 125
Q 1875 -225 1625 -475
Q 1375 -725 1025 -725
Q 650 -725 400 -475
Q 150 -225 150 125
z
M 550 125
Q 550 -350 1025 -350
Q 1200 -350 1337 -212
Q 1475 -75 1475 125
Q 1475 575 1025 575
Q 550 575 550 125
z
" transform="scale(0.015625)"/>
     <path id="DroidSansFallback-5feb" d="M 2175 2325
L 3625 2325
L 3650 3675
L 2650 3675
L 2650 4150
L 3650 4150
L 3650 5175
L 4150 5175
L 4150 4150
L 5525 4150
L 5525 2325
L 6075 2325
L 6075 1825
L 4375 1825
Q 4925 575 6150 -100
L 5775 -575
Q 4575 225 3975 1550
Q 3575 250 2350 -575
L 1900 -225
Q 3225 675 3525 1825
L 2175 1825
L 2175 2325
z
M 5025 2325
L 5025 3675
L 4150 3675
L 4125 2325
L 5025 2325
z
M 1300 5175
L 1775 5175
L 1775 3950
L 2600 2950
L 2275 2525
L 1775 3350
L 1775 -575
L 1300 -575
L 1300 5175
z
M 550 3925
L 1025 3825
Q 950 2850 700 2050
L 250 2275
Q 500 3100 550 3925
z
" transform="scale(0.015625)"/>
     <path id="DroidSansFallback-7167" d="M 2425 4825
L 2425 1300
L 650 1300
L 650 4825
L 2425 4825
z
M 1950 3275
L 1950 4400
L 1125 4400
L 1125 3275
L 1950 3275
z
M 1125 2850
L 1125 1725
L 1950 1725
L 1950 2850
L 1125 2850
z
M 2850 4950
L 5825 4950
Q 5825 3575 5662 3300
Q 5500 3025 5025 3025
L 4425 3050
L 4325 3500
L 4975 3450
Q 5175 3450 5225 3625
Q 5275 3800 5325 4500
L 4075 4500
Q 3900 3450 2925 3000
L 2625 3425
Q 3425 3775 3575 4500
L 2850 4500
L 2850 4950
z
M 2975 2825
L 5650 2825
L 5650 1100
L 2975 1100
L 2975 2825
z
M 3475 1525
L 5175 1525
L 5175 2400
L 3475 2400
L 3475 1525
z
M 1050 725
L 1500 450
Q 1125 -200 750 -600
L 325 -225
Q 775 225 1050 725
z
M 3925 700
L 4475 -350
L 3975 -575
Q 3775 25 3500 475
L 3925 700
z
M 5375 675
Q 5850 200 6125 -325
L 5650 -600
Q 5375 -75 4950 400
L 5375 675
z
M 2575 625
Q 2900 100 3000 -425
L 2450 -575
Q 2375 0 2075 475
L 2575 625
z
" transform="scale(0.015625)"/>
     <path id="DroidSansFallback-ff08" d="M 4100 4575
L 4700 4575
Q 3050 3575 3050 1750
Q 3050 -25 4700 -1000
L 4100 -1000
Q 3375 -675 2912 87
Q 2450 850 2450 1750
Q 2450 2675 2912 3437
Q 3375 4200 4100 4575
z
" transform="scale(0.015625)"/>
     <path id="DejaVuSans-55" d="M 556 4666
L 1191 4666
L 1191 1831
Q 1191 1081 1462 751
Q 1734 422 2344 422
Q 2950 422 3222 751
Q 3494 1081 3494 1831
L 3494 4666
L 4128 4666
L 4128 1753
Q 4128 841 3676 375
Q 3225 -91 2344 -91
Q 1459 -91 1007 375
Q 556 841 556 1753
L 556 4666
z
" transform="scale(0.015625)"/>
     <path id="DejaVuSans-54" d="M -19 4666
L 3928 4666
L 3928 4134
L 2272 4134
L 2272 0
L 1638 0
L 1638 4134
L -19 4134
L -19 4666
z
" transform="scale(0.015625)"/>
     <path id="DejaVuSans-43" d="M 4122 4306
L 4122 3641
Q 3803 3938 3442 4084
Q 3081 4231 2675 4231
Q 1875 4231 1450 3742
Q 1025 3253 1025 2328
Q 1025 1406 1450 917
Q 1875 428 2675 428
Q 3081 428 3442 575
Q 3803 722 4122 1019
L 4122 359
Q 3791 134 3420 21
Q 3050 -91 2638 -91
Q 1578 -91 968 557
Q 359 1206 359 2328
Q 359 3453 968 4101
Q 1578 4750 2638 4750
Q 3056 4750 3426 4639
Q 3797 4528 4122 4306
z
" transform="scale(0.015625)"/>
     <path id="DroidSansFallback-ff09" d="M 2300 -1000
L 1700 -1000
Q 3350 -25 3350 1750
Q 3350 3575 1700 4575
L 2300 4575
Q 3025 4200 3487 3437
Q 3950 2675 3950 1750
Q 3950 850 3487 87
Q 3025 -675 2300 -1000
z
" transform="scale(0.015625)"/>
    </defs>
    <use xlink:href="#DroidSansFallback-6765"/>
    <use xlink:href="#DroidSansFallback-6e90" transform="translate(100 0)"/>
    <use xlink:href="#DroidSansFallback-ff1a" transform="translate(200 0)"/>
    <use xlink:href="#DroidSansFallback-56fd" transform="translate(300 0)"/>
    <use xlink:href="#DroidSansFallback-5bb6" transform="translate(400 0)"/>
    <use xlink:href="#DroidSansFallback-7edf" transform="translate(500 0)"/>
    <use xlink:href="#DroidSansFallback-8ba1" transform="translate(600 0)"/>
    <use xlink:href="#DroidSansFallback-5c40" transform="translate(700 0)"/>
    <use xlink:href="#DroidSansFallback-ff1b" transform="translate(800 0)"/>
    <use xlink:href="#DroidSansFallback-7f3a" transform="translate(900 0)"/>
    <use xlink:href="#DroidSansFallback-5931" transform="translate(1000 0)"/>
    <use xlink:href="#DroidSansFallback-5904" transform="translate(1100 0)"/>
    <use xlink:href="#DroidSansFallback-65ad" transform="translate(1200 0)"/>
    <use xlink:href="#DroidSansFallback-7ebf" transform="translate(1300 0)"/>
    <use xlink:href="#DroidSansFallback-3002" transform="translate(1400 0)"/>
    <use xlink:href="#DroidSansFallback-5feb" transform="translate(1500 0)"/>
    <use xlink:href="#DroidSansFallback-7167" transform="translate(1600 0)"/>
    <use xlink:href="#DroidSansFallback-20" transform="translate(1700 0)"/>
    <use xlink:href="#DejaVuSans-32" transform="translate(1726.171875 0)"/>
    <use xlink:href="#DejaVuSans-30" transform="translate(1789.794922 0)"/>
    <use xlink:href="#DejaVuSans-32" transform="translate(1853.417969 0)"/>
    <use xlink:href="#DejaVuSans-36" transform="translate(1917.041016 0)"/>
    <use xlink:href="#DejaVuSans-2d" transform="translate(1980.664062 0)"/>
    <use xlink:href="#DejaVuSans-31" transform="translate(2016.748047 0)"/>
    <use xlink:href="#DejaVuSans-30" transform="translate(2080.371094 0)"/>
    <use xlink:href="#DejaVuSans-2d" transform="translate(2143.994141 0)"/>
    <use xlink:href="#DejaVuSans-30" transform="translate(2180.078125 0)"/>
    <use xlink:href="#DejaVuSans-32" transform="translate(2243.701172 0)"/>
    <use xlink:href="#DroidSansFallback-ff08" transform="translate(2307.324219 0)"/>
    <use xlink:href="#DejaVuSans-55" transform="translate(2407.324219 0)"/>
    <use xlink:href="#DejaVuSans-54" transform="translate(2480.517578 0)"/>
    <use xlink:href="#DejaVuSans-43" transform="translate(2535.726562 0)"/>
    <use xlink:href="#DroidSansFallback-ff09" transform="translate(2605.550781 0)"/>
   </g>
  </g>
 </g>
 <defs>
  <clipPath id="p95fe033cf8">
   <rect x="79.2" y="88.704" width="681.12" height="225.792"/>
  </clipPath>
 </defs>
</svg>
